<svg version="1.1" id="Layer_1" xmlns="http://www.w3.org/2000/svg" xmlns:xlink="http://www.w3.org/1999/xlink" x="0px" y="0px"
	 width="100%" viewBox="0 0 172 168" enable-background="new 0 0 172 168" xml:space="preserve">
<path fill="#AD3DC8" opacity="1.000000" stroke="none" 
	d="
M173.000000,19.000000 
	C173.000000,26.020948 173.000000,33.041897 172.664398,40.442936 
	C169.141434,38.631702 166.419052,39.237968 164.230026,42.296055 
	C162.414978,44.831718 160.879990,47.581608 158.932587,50.004890 
	C157.014374,52.391869 155.122452,55.590378 152.538086,56.501503 
	C145.172562,59.098255 142.479599,65.844917 137.660065,71.093933 
	C133.842041,73.546227 130.357239,75.909492 126.549057,78.268135 
	C125.818596,78.127121 125.411522,77.990723 124.918015,77.633347 
	C124.187569,77.256340 123.543549,77.100311 122.543648,76.999985 
	C121.950325,77.091682 121.712891,77.127663 121.124313,77.217651 
	C119.849831,77.082016 118.926491,76.892372 117.868713,76.414627 
	C115.726059,74.287750 113.717850,72.448982 110.994873,69.955757 
	C112.987984,69.359955 114.449585,69.069244 115.787842,68.492386 
	C118.526131,67.312035 121.198166,65.977959 124.041870,64.433876 
	C124.842094,63.112068 125.497932,62.063576 126.434662,60.877388 
	C128.144150,59.267395 129.572739,57.795090 131.293564,56.168270 
	C132.721878,55.008636 133.857971,54.003513 135.332123,52.892952 
	C136.453033,51.797985 137.649658,50.918968 137.948456,49.800167 
	C139.395905,44.380440 142.373108,40.453014 147.346298,37.601727 
	C152.781189,34.485748 155.330307,29.380646 155.083984,22.774097 
	C161.113205,21.364609 167.056595,20.182304 173.000000,19.000000 
z"/>
<path fill="#7041E4" opacity="1.000000" stroke="none" 
	d="
M63.000000,1.000000 
	C68.022095,1.000000 73.044182,1.000000 78.406769,1.313050 
	C75.806854,4.939435 72.990288,8.373571 69.900520,11.541227 
	C63.249531,18.359884 56.450390,25.033884 49.728836,31.783962 
	C47.860977,33.659744 46.133835,35.681652 44.202625,37.487305 
	C36.248638,44.924175 27.151634,51.460705 20.578163,59.955776 
	C14.721794,67.524109 7.638064,73.443794 1.000000,80.000000 
	C1.000000,74.645073 1.000000,69.290138 1.325352,63.374146 
	C7.160837,57.588634 12.751914,52.446426 18.162655,47.120991 
	C26.879082,38.541988 35.560188,29.923660 44.096928,21.166656 
	C50.527214,14.570452 56.708099,7.731113 63.000000,1.000000 
z"/>
<path fill="#8740DB" opacity="1.000000" stroke="none" 
	d="
M1.000000,118.000000 
	C1.000000,115.629440 1.000000,113.258888 1.337802,110.343285 
	C6.706032,107.813713 8.660823,103.152695 11.756662,99.223831 
	C18.569637,90.577652 26.509605,82.799515 34.229794,74.901901 
	C36.222240,72.863655 39.481522,72.073280 41.505634,70.054665 
	C47.121738,64.453835 52.281113,58.396862 57.852894,52.748940 
	C60.359676,50.207905 63.718662,48.495827 66.167084,45.911320 
	C72.052795,39.698460 76.477936,32.451649 83.151917,26.560513 
	C90.621277,19.967285 99.489151,14.763891 105.662971,6.664038 
	C106.055733,6.148737 107.203674,6.209050 107.999435,6.410578 
	C107.520081,8.686990 107.549271,11.778657 106.480232,12.221972 
	C99.834427,14.977880 97.601875,21.974323 92.441048,26.029657 
	C88.832916,28.864897 87.403236,32.483299 87.808990,37.141052 
	C87.397385,37.562649 87.176788,37.817558 86.627731,38.095192 
	C85.870750,38.028919 85.442230,37.939919 85.012367,37.619400 
	C85.011017,37.387878 84.988266,36.925388 84.875069,36.591415 
	C82.667458,35.699917 80.582901,34.882191 78.470383,34.802090 
	C78.042450,34.785862 77.508858,37.555836 76.835815,39.339279 
	C75.441475,42.883774 74.469650,46.242611 72.979324,49.353001 
	C70.057007,55.451992 68.004112,62.575615 63.443031,67.117958 
	C58.435307,72.105110 51.552700,75.530281 43.784164,76.477058 
	C36.734993,77.336174 34.129955,81.070587 34.005131,88.017075 
	C33.981251,89.345947 34.000141,90.675575 33.624638,92.004410 
	C32.500652,92.003738 31.751329,92.003510 30.670898,92.090164 
	C23.439947,98.478722 16.584160,104.829689 9.618345,111.057579 
	C6.871928,113.513054 3.880084,115.694031 1.000000,118.000000 
z"/>
<path fill="#B93ABF" opacity="1.000000" stroke="none" 
	d="
M70.000000,169.000000 
	C64.977905,169.000000 59.955814,169.000000 54.499172,168.641510 
	C56.251614,165.718903 58.313896,163.033218 60.661163,160.625336 
	C62.944454,158.283096 65.626701,156.332672 67.944145,154.020157 
	C72.545273,149.428802 75.225319,142.087418 84.696861,144.064087 
	C83.349030,141.981064 82.648796,140.898880 82.390717,140.500015 
	C85.399094,138.813934 88.078026,137.312485 90.784744,135.813080 
	C90.812531,135.815140 90.822166,135.869858 91.118591,135.801498 
	C91.843704,135.327499 92.272392,134.921860 92.596352,134.547684 
	C92.491631,134.579132 92.430397,134.369202 92.802383,134.393631 
	C94.181351,132.665955 95.200706,130.920837 96.191986,129.159897 
	C97.289238,127.210686 97.995453,124.887314 99.506989,123.352119 
	C105.932777,116.825768 111.563957,109.603683 118.961853,103.869713 
	C122.043030,101.481537 124.393074,98.979591 128.415054,98.179520 
	C130.302841,97.803986 134.010468,97.987732 132.891891,93.614197 
	C133.350037,92.898201 133.722107,92.461029 134.318542,91.939087 
	C134.661087,91.218155 134.779282,90.581993 134.873566,89.543503 
	C134.823257,87.799103 134.796860,86.457039 134.991791,84.946304 
	C135.476822,84.517189 135.740524,84.256752 136.310852,84.158310 
	C138.410233,85.879402 140.202988,87.438499 141.986389,89.373398 
	C140.985504,92.166481 139.993973,94.583771 139.002014,97.250893 
	C139.001602,97.500717 139.001190,98.000374 138.800812,98.267593 
	C134.000427,102.935188 129.351547,107.285828 124.812279,111.747963 
	C118.516258,117.937019 112.102104,124.025688 106.135246,130.521759 
	C102.988190,133.947922 100.682899,138.147293 97.638275,142.007660 
	C90.712326,142.702835 94.598854,145.615524 95.915855,148.313416 
	C94.885170,149.418427 93.942886,150.209518 92.649750,150.920227 
	C90.102539,150.565186 86.780266,149.238220 85.893196,150.187317 
	C80.294785,156.177170 75.236595,162.671967 70.000000,169.000000 
z"/>
<path fill="#C237B5" opacity="1.000000" stroke="none" 
	d="
M173.000000,88.000000 
	C173.000000,91.030594 173.000000,94.061188 172.620667,97.558182 
	C171.162735,98.375969 169.774048,98.416603 169.057861,99.131203 
	C165.493011,102.688179 162.123932,106.440399 158.651001,110.090645 
	C151.390762,117.721558 144.272461,125.496887 136.794693,132.909073 
	C127.090485,142.528183 116.990608,151.748550 107.306236,161.386887 
	C105.316269,163.367401 104.407257,166.434006 103.000000,169.000000 
	C98.310745,169.000000 93.621490,169.000000 88.543915,168.655640 
	C88.846970,166.996002 89.278854,165.428482 90.272079,164.406555 
	C96.473236,158.026077 102.731827,151.697342 109.120407,145.505188 
	C111.479042,143.219086 114.435822,141.548294 116.783295,139.252747 
	C123.530815,132.654480 130.107773,125.881775 136.749298,119.175179 
	C144.082077,111.770531 151.344803,104.294807 158.770142,96.984215 
	C162.831650,92.985481 166.266602,87.832260 173.000000,88.000000 
z"/>
<path fill="#7841E1" opacity="1.000000" stroke="none" 
	d="
M1.000000,80.458069 
	C7.638064,73.443794 14.721794,67.524109 20.578163,59.955776 
	C27.151634,51.460705 36.248638,44.924175 44.202625,37.487305 
	C46.133835,35.681652 47.860977,33.659744 49.728836,31.783962 
	C56.450390,25.033884 63.249531,18.359884 69.900520,11.541227 
	C72.990288,8.373571 75.806854,4.939435 78.873634,1.313050 
	C82.030594,1.000000 85.061188,1.000000 88.665596,1.287041 
	C89.931786,2.582512 90.624161,3.590942 90.717773,3.727280 
	C85.840523,7.732324 80.806152,10.895240 77.044380,15.176366 
	C70.953918,22.107670 65.479996,29.552263 57.414417,34.435436 
	C57.284275,34.514229 57.218479,34.699585 57.123146,34.835564 
	C53.029716,40.674438 47.638649,45.134197 42.500256,49.993950 
	C35.530712,56.585552 29.079767,63.838730 21.927332,70.401817 
	C16.719383,75.180649 14.420842,83.044037 6.285995,84.822113 
	C5.319600,85.033348 4.728271,86.815384 3.892971,87.810440 
	C2.970788,88.909004 1.967795,89.939728 1.000000,91.000000 
	C1.000000,87.638710 1.000000,84.277428 1.000000,80.458069 
z"/>
<path fill="#7E40DF" opacity="1.000000" stroke="none" 
	d="
M1.000000,91.454109 
	C1.967795,89.939728 2.970788,88.909004 3.892971,87.810440 
	C4.728271,86.815384 5.319600,85.033348 6.285995,84.822113 
	C14.420842,83.044037 16.719383,75.180649 21.927332,70.401817 
	C29.079767,63.838730 35.530712,56.585552 42.500256,49.993950 
	C47.638649,45.134197 53.029716,40.674438 57.123146,34.835564 
	C57.218479,34.699585 57.284275,34.514229 57.414417,34.435436 
	C65.479996,29.552263 70.953918,22.107670 77.044380,15.176366 
	C80.806152,10.895240 85.840523,7.732324 90.717773,3.727280 
	C90.624161,3.590942 89.931786,2.582512 89.119705,1.287041 
	C93.024544,1.000000 97.049088,1.000000 101.651566,1.279978 
	C102.825989,2.446534 103.422478,3.333113 103.719666,3.774826 
	C99.844498,5.918298 95.885674,7.462258 92.737488,10.008492 
	C88.550713,13.394735 84.882523,17.457207 81.205116,21.427008 
	C78.315659,24.546204 75.763718,27.976820 73.031181,31.243444 
	C72.312195,32.102959 71.599777,33.374279 70.679321,33.592758 
	C64.872292,34.971107 61.949989,39.837280 58.277470,43.695770 
	C50.200932,52.181278 42.449600,60.976814 34.352978,69.442520 
	C29.667351,74.341736 24.549026,78.825562 19.666050,83.538414 
	C17.872484,85.269485 16.460211,87.538155 14.414074,88.837074 
	C9.211251,92.139893 3.585877,94.852089 1.000000,101.000000 
	C1.000000,97.969406 1.000000,94.938812 1.000000,91.454109 
z"/>
<path fill="#CB33AA" opacity="1.000000" stroke="none" 
	d="
M134.000000,169.000000 
	C129.643097,169.000000 125.286201,169.000000 120.498390,168.639740 
	C121.505135,165.900818 122.381470,162.651581 124.480278,161.298355 
	C132.412323,156.183990 137.879852,148.672623 144.342789,142.139389 
	C146.772675,139.683090 148.855453,136.868332 151.384094,134.527725 
	C158.509506,127.932167 165.784180,121.497871 173.000000,115.000000 
	C173.000000,120.354927 173.000000,125.709862 172.649017,131.646652 
	C171.531906,133.734055 170.891769,135.321869 169.973679,136.728210 
	C167.995560,139.758392 166.262756,143.096634 163.710510,145.565430 
	C160.736130,148.442551 157.012375,150.552292 153.580017,152.946564 
	C150.019852,155.430008 146.388748,157.812347 142.845062,160.318649 
	C139.436279,162.729523 134.000458,163.108810 134.000000,169.000000 
z"/>
<path fill="#8340DD" opacity="1.000000" stroke="none" 
	d="
M1.000000,101.449982 
	C3.585877,94.852089 9.211251,92.139893 14.414074,88.837074 
	C16.460211,87.538155 17.872484,85.269485 19.666050,83.538414 
	C24.549026,78.825562 29.667351,74.341736 34.352978,69.442520 
	C42.449600,60.976814 50.200932,52.181278 58.277470,43.695770 
	C61.949989,39.837280 64.872292,34.971107 70.679321,33.592758 
	C71.599777,33.374279 72.312195,32.102959 73.031181,31.243444 
	C75.763718,27.976820 78.315659,24.546204 81.205116,21.427008 
	C84.882523,17.457207 88.550713,13.394735 92.737488,10.008492 
	C95.885674,7.462258 99.844498,5.918298 103.719666,3.774826 
	C103.422478,3.333113 102.825989,2.446534 102.114746,1.279978 
	C105.361290,1.000000 108.722572,1.000000 112.526001,1.372770 
	C112.890045,5.005954 110.714691,5.818360 108.000305,6.001583 
	C107.203674,6.209050 106.055733,6.148737 105.662971,6.664038 
	C99.489151,14.763891 90.621277,19.967285 83.151917,26.560513 
	C76.477936,32.451649 72.052795,39.698460 66.167084,45.911320 
	C63.718662,48.495827 60.359676,50.207905 57.852894,52.748940 
	C52.281113,58.396862 47.121738,64.453835 41.505634,70.054665 
	C39.481522,72.073280 36.222240,72.863655 34.229794,74.901901 
	C26.509605,82.799515 18.569637,90.577652 11.756662,99.223831 
	C8.660823,103.152695 6.706032,107.813713 1.337802,109.899124 
	C1.000000,107.299988 1.000000,104.599968 1.000000,101.449982 
z"/>
<path fill="#9841D2" opacity="1.000000" stroke="none" 
	d="
M138.000000,1.000000 
	C147.354233,1.000000 156.708450,1.000000 166.436798,1.327473 
	C162.448166,7.248428 156.639496,9.653728 149.633270,9.767312 
	C147.946411,9.794659 145.929169,10.315145 144.661438,11.344685 
	C141.095245,14.240858 137.979355,17.689480 134.428833,20.607475 
	C129.591599,24.582954 124.470139,28.210604 119.564461,32.105675 
	C117.383621,33.837227 116.049133,35.893318 118.993912,38.376755 
	C118.071411,40.261292 117.547508,41.985210 116.577026,43.403561 
	C115.650169,44.758148 114.438843,46.483364 113.039276,46.850109 
	C107.377098,48.333820 106.372124,51.008858 109.903854,56.189468 
	C107.038872,58.253788 104.453041,60.248066 101.572998,61.628555 
	C100.468521,62.157959 98.692574,61.286495 97.075005,60.675774 
	C96.565369,57.402878 96.203323,54.507572 95.871597,51.129875 
	C95.937584,48.432568 95.973244,46.217659 96.350433,43.910419 
	C98.914032,42.435909 101.437874,41.370972 103.294724,39.604809 
	C107.040108,36.042343 110.315216,31.990326 113.985466,28.342649 
	C117.625801,24.724707 122.115875,21.798197 125.100288,17.736048 
	C127.449417,14.538597 129.622864,12.406981 133.557800,11.646538 
	C134.948303,11.377817 136.519348,9.468139 137.055420,7.967392 
	C137.826752,5.807985 137.727615,3.337638 138.000000,1.000000 
z"/>
<path fill="#5540EC" opacity="1.000000" stroke="none" 
	d="
M1.000000,40.000000 
	C1.000000,27.074312 1.000000,14.148626 1.000000,1.000000 
	C13.353334,1.000000 25.708010,1.000000 38.442650,1.332964 
	C35.647850,5.448513 32.632603,9.380282 29.264301,12.981872 
	C22.739872,19.958179 16.113781,26.846724 9.324839,33.564487 
	C6.850217,36.013165 3.791977,37.872040 1.000000,40.000000 
z"/>
<path fill="#BE39B8" opacity="1.000000" stroke="none" 
	d="
M173.000000,87.541931 
	C166.266602,87.832260 162.831650,92.985481 158.770142,96.984215 
	C151.344803,104.294807 144.082077,111.770531 136.749298,119.175179 
	C130.107773,125.881775 123.530815,132.654480 116.783295,139.252747 
	C114.435822,141.548294 111.479042,143.219086 109.120407,145.505188 
	C102.731827,151.697342 96.473236,158.026077 90.272079,164.406555 
	C89.278854,165.428482 88.846970,166.996002 88.077797,168.655640 
	C84.638710,169.000000 81.277428,169.000000 77.492081,168.639908 
	C79.167389,166.134918 81.327705,164.045761 83.352234,161.832413 
	C86.615425,158.264862 89.789108,154.615448 93.000595,151.000610 
	C93.942886,150.209518 94.885170,149.418427 96.242691,148.227142 
	C98.772049,146.217957 100.886169,144.608978 103.345078,142.921875 
	C107.279793,140.226578 111.239182,137.988388 114.387978,134.918732 
	C122.685616,126.829666 130.701462,118.446136 138.680649,110.038597 
	C141.665604,106.893387 144.238571,103.357193 146.999695,99.624588 
	C147.000397,98.500542 147.000809,97.751190 147.181183,96.848610 
	C147.593155,96.480980 147.806519,96.249382 148.378052,95.967712 
	C156.388794,94.598839 160.467255,88.844353 164.961624,83.361908 
	C167.078293,80.779907 170.286438,79.092674 173.000000,77.000000 
	C173.000000,80.361290 173.000000,83.722572 173.000000,87.541931 
z"/>
<path fill="#9B3ED0" opacity="1.000000" stroke="none" 
	d="
M119.197319,38.082577 
	C116.049133,35.893318 117.383621,33.837227 119.564461,32.105675 
	C124.470139,28.210604 129.591599,24.582954 134.428833,20.607475 
	C137.979355,17.689480 141.095245,14.240858 144.661438,11.344685 
	C145.929169,10.315145 147.946411,9.794659 149.633270,9.767312 
	C156.639496,9.653728 162.448166,7.248428 166.905457,1.327473 
	C168.962601,1.000000 170.925201,1.000000 173.000000,1.000000 
	C173.000000,6.686531 173.000000,12.373557 173.000000,18.530293 
	C167.056595,20.182304 161.113205,21.364609 154.729843,22.718615 
	C148.564697,19.344090 146.217087,19.460224 141.842468,23.700277 
	C140.430740,25.068565 139.361435,26.803598 137.896439,28.100903 
	C133.613968,31.893175 129.210968,35.549339 124.878487,39.250542 
	C124.901772,39.242245 124.863022,39.230846 124.817741,38.980324 
	C124.156342,38.535892 123.540222,38.341984 122.589882,38.104797 
	C121.818680,37.960308 121.381706,37.859097 120.832611,37.708057 
	C120.467644,37.607910 120.240036,37.666157 119.840889,37.940109 
	C119.644089,38.047256 119.197319,38.082577 119.197319,38.082577 
z"/>
<path fill="#D42A9F" opacity="1.000000" stroke="none" 
	d="
M134.468658,169.000000 
	C134.000458,163.108810 139.436279,162.729523 142.845062,160.318649 
	C146.388748,157.812347 150.019852,155.430008 153.580017,152.946564 
	C157.012375,150.552292 160.736130,148.442551 163.710510,145.565430 
	C166.262756,143.096634 167.995560,139.758392 169.973679,136.728210 
	C170.891769,135.321869 171.531906,133.734055 172.649017,132.114258 
	C173.000000,144.261902 173.000000,156.523788 173.000000,169.000000 
	C160.313248,169.000000 147.625275,169.000000 134.468658,169.000000 
z"/>
<path fill="#6541E7" opacity="1.000000" stroke="none" 
	d="
M62.533882,1.000000 
	C56.708099,7.731113 50.527214,14.570452 44.096928,21.166656 
	C35.560188,29.923660 26.879082,38.541988 18.162655,47.120991 
	C12.751914,52.446426 7.160837,57.588634 1.325352,62.906540 
	C1.000000,58.975456 1.000000,54.950912 1.360075,50.429573 
	C2.764151,49.469803 4.018594,49.237324 4.818497,48.507000 
	C10.645379,43.186962 16.371933,37.757225 22.148283,32.381592 
	C26.019306,28.779112 30.536024,25.672655 33.666645,21.517586 
	C38.675991,14.869000 47.282955,10.636738 48.000000,1.000000 
	C52.689255,1.000000 57.378513,1.000000 62.533882,1.000000 
z"/>
<path fill="#AF3CC7" opacity="1.000000" stroke="none" 
	d="
M41.000000,169.000000 
	C37.637897,169.000000 34.275799,169.000000 30.399948,168.648834 
	C28.591717,167.528030 27.297237,166.758392 26.099113,165.646851 
	C27.056011,164.353104 27.800055,162.732819 28.796228,162.559189 
	C34.736118,161.523941 37.487724,156.936859 40.615372,152.657166 
	C41.573910,151.345551 42.657337,149.629242 44.030014,149.196045 
	C53.568275,146.185944 57.547573,137.048950 64.304520,131.009674 
	C64.916283,130.462891 64.145950,128.369781 64.015388,126.596321 
	C64.018135,125.134995 64.022942,124.072128 64.340851,122.889946 
	C75.260887,118.870407 66.590790,128.678101 69.874275,130.553741 
	C71.246071,130.369156 72.617867,130.184570 74.104462,130.301010 
	C72.483986,134.208282 71.368004,138.342300 68.857681,141.288055 
	C65.674095,145.023849 61.339134,147.772400 57.550072,151.004578 
	C56.955986,151.511353 56.697029,152.391556 56.157631,152.985031 
	C52.812962,156.664963 49.456516,160.334900 46.053368,163.960663 
	C44.426224,165.694229 42.687943,167.323486 41.000000,169.000000 
z"/>
<path fill="#9040D7" opacity="1.000000" stroke="none" 
	d="
M137.539368,1.000000 
	C137.727615,3.337638 137.826752,5.807985 137.055420,7.967392 
	C136.519348,9.468139 134.948303,11.377817 133.557800,11.646538 
	C129.622864,12.406981 127.449417,14.538597 125.100288,17.736048 
	C122.115875,21.798197 117.625801,24.724707 113.985466,28.342649 
	C110.315216,31.990326 107.040108,36.042343 103.294724,39.604809 
	C101.437874,41.370972 98.914032,42.435909 96.314560,43.557613 
	C94.292236,41.202663 92.647301,39.108189 91.006790,36.623615 
	C91.284538,35.136917 91.705887,33.067165 91.809975,33.082996 
	C97.717178,33.981609 98.454086,28.160976 101.500893,25.513281 
	C104.698082,22.734919 107.204071,19.169441 110.081451,16.011101 
	C111.401482,14.562177 112.693138,12.426789 114.332420,12.046767 
	C120.535782,10.608685 122.831642,5.419006 126.000000,1.000000 
	C129.692902,1.000000 133.385818,1.000000 137.539368,1.000000 
z"/>
<path fill="#5D41E9" opacity="1.000000" stroke="none" 
	d="
M47.550018,1.000000 
	C47.282955,10.636738 38.675991,14.869000 33.666645,21.517586 
	C30.536024,25.672655 26.019306,28.779112 22.148283,32.381592 
	C16.371933,37.757225 10.645379,43.186962 4.818497,48.507000 
	C4.018594,49.237324 2.764151,49.469803 1.360075,49.966389 
	C1.000000,46.969406 1.000000,43.938812 1.000000,40.454109 
	C3.791977,37.872040 6.850217,36.013165 9.324839,33.564487 
	C16.113781,26.846724 22.739872,19.958179 29.264301,12.981872 
	C32.632603,9.380282 35.647850,5.448513 38.911308,1.332964 
	C41.700012,1.000000 44.400028,1.000000 47.550018,1.000000 
z"/>
<path fill="#B53BC3" opacity="1.000000" stroke="none" 
	d="
M141.995728,88.997604 
	C140.202988,87.438499 138.410233,85.879402 136.309921,83.739120 
	C136.665985,79.106934 137.329636,75.055923 137.993286,71.004913 
	C142.479599,65.844917 145.172562,59.098255 152.538086,56.501503 
	C155.122452,55.590378 157.014374,52.391869 158.932587,50.004890 
	C160.879990,47.581608 162.414978,44.831718 164.230026,42.296055 
	C166.419052,39.237968 169.141434,38.631702 172.664398,40.911514 
	C173.000000,44.361286 173.000000,47.722576 172.625687,51.553368 
	C168.023849,55.470963 162.165344,58.112591 159.964813,62.562946 
	C156.936050,68.688354 152.552505,72.520241 147.228348,75.748398 
	C143.169434,78.209396 141.457916,81.416420 142.001129,86.375595 
	C141.998840,87.499321 141.997284,88.248466 141.995728,88.997604 
z"/>
<path fill="#C735AE" opacity="1.000000" stroke="none" 
	d="
M173.000000,114.541931 
	C165.784180,121.497871 158.509506,127.932167 151.384094,134.527725 
	C148.855453,136.868332 146.772675,139.683090 144.342789,142.139389 
	C137.879852,148.672623 132.412323,156.183990 124.480278,161.298355 
	C122.381470,162.651581 121.505135,165.900818 120.033737,168.639740 
	C117.299988,169.000000 114.599968,169.000000 111.539261,168.662750 
	C115.452477,162.883667 119.726395,157.441833 124.401245,151.996826 
	C130.813843,151.390778 131.658813,150.463791 133.268799,142.799591 
	C135.404251,141.001404 137.409012,139.537689 139.112915,137.781998 
	C145.462082,131.239807 151.712509,124.601761 158.347290,117.921036 
	C164.338913,115.685883 169.051819,112.640083 170.227829,105.796234 
	C171.303360,105.061310 172.151672,104.530647 173.000000,103.999992 
	C173.000000,107.361290 173.000000,110.722572 173.000000,114.541931 
z"/>
<path fill="#9B3ED0" opacity="1.000000" stroke="none" 
	d="
M5.999999,169.000000 
	C4.358042,169.000000 2.716084,169.000000 1.000000,169.000000 
	C1.000000,160.979233 1.000000,152.958282 1.310902,144.405548 
	C2.413670,143.579865 3.205536,143.285965 4.386089,143.004791 
	C8.857051,144.196823 11.541981,142.996536 14.387797,139.479752 
	C19.308598,133.398773 23.063185,125.713104 32.419842,123.718575 
	C32.906670,125.342407 33.453209,127.165405 33.725662,129.207733 
	C31.598381,135.159073 27.605749,139.070740 22.688292,142.251694 
	C21.456310,143.048630 20.431072,144.171677 19.335711,145.172104 
	C15.447920,148.722931 12.681016,152.573578 15.821089,158.280640 
	C12.425836,162.040207 9.212916,165.520111 5.999999,169.000000 
z"/>
<path fill="#C535B1" opacity="1.000000" stroke="none" 
	d="
M124.000305,152.000000 
	C119.726395,157.441833 115.452477,162.883667 111.089279,168.662750 
	C108.629440,169.000000 106.258888,169.000000 103.444168,169.000000 
	C104.407257,166.434006 105.316269,163.367401 107.306236,161.386887 
	C116.990608,151.748550 127.090485,142.528183 136.794693,132.909073 
	C144.272461,125.496887 151.390762,117.721558 158.651001,110.090645 
	C162.123932,106.440399 165.493011,102.688179 169.057861,99.131203 
	C169.774048,98.416603 171.162735,98.375969 172.620667,98.012299 
	C173.000000,99.714355 173.000000,101.428719 173.000000,103.571533 
	C172.151672,104.530647 171.303360,105.061310 169.870712,105.831268 
	C165.524246,110.046936 161.762115,114.023315 158.000000,117.999695 
	C151.712509,124.601761 145.462082,131.239807 139.112915,137.781998 
	C137.409012,139.537689 135.404251,141.001404 132.938660,142.887085 
	C129.559906,146.116684 126.780106,149.058350 124.000305,152.000000 
z"/>
<path fill="#B442C3" opacity="1.000000" stroke="none" 
	d="
M41.463181,169.000000 
	C42.687943,167.323486 44.426224,165.694229 46.053368,163.960663 
	C49.456516,160.334900 52.812962,156.664963 56.157631,152.985031 
	C56.697029,152.391556 56.955986,151.511353 57.550072,151.004578 
	C61.339134,147.772400 65.674095,145.023849 68.857681,141.288055 
	C71.368004,138.342300 72.483986,134.208282 74.107246,129.874969 
	C73.993301,127.447006 73.991371,125.746086 74.173477,124.036873 
	C74.357513,124.028572 74.725327,124.006866 74.863907,124.381927 
	C77.322083,136.554062 81.070129,139.183853 90.756966,135.811035 
	C88.078026,137.312485 85.399094,138.813934 82.390717,140.500015 
	C82.648796,140.898880 83.349030,141.981064 84.696861,144.064087 
	C75.225319,142.087418 72.545273,149.428802 67.944145,154.020157 
	C65.626701,156.332672 62.944454,158.283096 60.661163,160.625336 
	C58.313896,163.033218 56.251614,165.718903 54.032310,168.641510 
	C49.975456,169.000000 45.950912,169.000000 41.463181,169.000000 
z"/>
<path fill="#B93ABF" opacity="1.000000" stroke="none" 
	d="
M142.001831,86.001015 
	C141.457916,81.416420 143.169434,78.209396 147.228348,75.748398 
	C152.552505,72.520241 156.936050,68.688354 159.964813,62.562946 
	C162.165344,58.112591 168.023849,55.470963 172.625687,52.011436 
	C173.000000,55.030594 173.000000,58.061188 172.612823,61.548737 
	C170.714554,63.010235 167.776840,64.621094 167.907257,64.927994 
	C169.744202,69.250229 166.533737,71.079842 164.089096,73.158012 
	C161.069138,75.725258 157.959869,78.217392 154.694366,80.458069 
	C150.846619,83.098282 148.170929,88.626137 142.001831,86.001015 
z"/>
<path fill="#8840DB" opacity="1.000000" stroke="none" 
	d="
M125.536819,1.000000 
	C122.831642,5.419006 120.535782,10.608685 114.332420,12.046767 
	C112.693138,12.426789 111.401482,14.562177 110.081451,16.011101 
	C107.204071,19.169441 104.698082,22.734919 101.500893,25.513281 
	C98.454086,28.160976 97.717178,33.981609 91.809975,33.082996 
	C91.705887,33.067165 91.284538,35.136917 90.631424,36.621353 
	C89.501091,36.997585 88.750542,36.985977 88.000000,36.974365 
	C87.403236,32.483299 88.832916,28.864897 92.441048,26.029657 
	C97.601875,21.974323 99.834427,14.977880 106.480232,12.221972 
	C107.549271,11.778657 107.520081,8.686990 107.999435,6.410579 
	C110.714691,5.818360 112.890045,5.005954 112.984070,1.372770 
	C117.024544,1.000000 121.049088,1.000000 125.536819,1.000000 
z"/>
<path fill="#9040D8" opacity="1.000000" stroke="none" 
	d="
M3.997402,142.992065 
	C3.205536,143.285965 2.413670,143.579865 1.310902,143.936890 
	C1.000000,138.645065 1.000000,133.290146 1.331111,127.379471 
	C2.721964,126.065369 4.212779,125.541687 4.773520,124.511673 
	C9.420209,115.976166 18.651423,112.143562 24.621735,104.985039 
	C25.311543,104.157951 26.481064,103.476891 27.538488,103.255844 
	C31.454556,102.437225 34.003517,101.320755 30.840960,96.745377 
	C30.118959,95.700836 30.908274,93.611664 31.002003,92.003281 
	C31.751329,92.003510 32.500652,92.003738 33.707893,92.320160 
	C35.115498,94.083641 36.065186,95.530922 36.933708,97.326096 
	C36.569786,100.450607 36.287029,103.227234 35.739357,106.186325 
	C34.651340,106.580872 33.828236,106.792961 32.619888,107.014618 
	C25.148581,107.739281 22.414413,113.515190 18.759325,118.364326 
	C16.729624,121.057098 14.496934,124.168526 11.617636,125.527985 
	C5.952953,128.202545 2.223395,134.725052 3.999676,141.331863 
	C3.999007,142.106674 3.998205,142.549362 3.997402,142.992065 
z"/>
<path fill="#8C40D9" opacity="1.000000" stroke="none" 
	d="
M30.670898,92.090164 
	C30.908274,93.611664 30.118959,95.700836 30.840960,96.745377 
	C34.003517,101.320755 31.454556,102.437225 27.538488,103.255844 
	C26.481064,103.476891 25.311543,104.157951 24.621735,104.985039 
	C18.651423,112.143562 9.420209,115.976166 4.773520,124.511673 
	C4.212779,125.541687 2.721964,126.065369 1.331111,126.911865 
	C1.000000,124.299988 1.000000,121.599968 1.000000,118.449982 
	C3.880084,115.694031 6.871928,113.513054 9.618345,111.057579 
	C16.584160,104.829689 23.439947,98.478722 30.670898,92.090164 
z"/>
<path fill="#BB39BC" opacity="1.000000" stroke="none" 
	d="
M142.001129,86.375595 
	C148.170929,88.626137 150.846619,83.098282 154.694366,80.458069 
	C157.959869,78.217392 161.069138,75.725258 164.089096,73.158012 
	C166.533737,71.079842 169.744202,69.250229 167.907257,64.927994 
	C167.776840,64.621094 170.714554,63.010235 172.612823,62.002846 
	C173.000000,65.361290 173.000000,68.722572 172.655884,72.619713 
	C167.300537,77.300667 162.328827,81.495094 157.254333,85.561287 
	C155.701614,86.805489 153.813065,88.650467 152.172119,88.557869 
	C148.462418,88.348534 147.981979,90.208412 147.625793,93.019386 
	C146.167526,94.358910 145.082840,95.679665 143.581802,97.000458 
	C141.777771,97.000694 140.390106,97.000877 139.002441,97.001068 
	C139.993973,94.583771 140.985504,92.166481 141.986389,89.373398 
	C141.997284,88.248466 141.998840,87.499321 142.001129,86.375595 
z"/>
<path fill="#BC39BA" opacity="1.000000" stroke="none" 
	d="
M92.649750,150.920227 
	C89.789108,154.615448 86.615425,158.264862 83.352234,161.832413 
	C81.327705,164.045761 79.167389,166.134918 77.034012,168.639908 
	C74.958336,169.000000 72.916664,169.000000 70.437500,169.000000 
	C75.236595,162.671967 80.294785,156.177170 85.893196,150.187317 
	C86.780266,149.238220 90.102539,150.565186 92.649750,150.920227 
z"/>
<path fill="#A03CC1" opacity="1.000000" stroke="none" 
	d="
M6.468635,169.000000 
	C9.212916,165.520111 12.425836,162.040207 16.155891,158.326019 
	C18.103224,159.069519 19.533421,160.047318 21.141651,161.298309 
	C22.880709,163.043945 24.441730,164.516357 26.002756,165.988770 
	C27.297237,166.758392 28.591717,167.528030 29.943100,168.648834 
	C22.312424,169.000000 14.624847,169.000000 6.468635,169.000000 
z"/>
<path fill="#BD39BA" opacity="1.000000" stroke="none" 
	d="
M147.999390,93.000610 
	C147.981979,90.208412 148.462418,88.348534 152.172119,88.557869 
	C153.813065,88.650467 155.701614,86.805489 157.254333,85.561287 
	C162.328827,81.495094 167.300537,77.300667 172.655884,73.077782 
	C173.000000,74.066673 173.000000,75.133339 173.000000,76.600006 
	C170.286438,79.092674 167.078293,80.779907 164.961624,83.361908 
	C160.467255,88.844353 156.388794,94.598839 148.377609,95.592697 
	C148.000015,94.500587 147.999710,93.750595 147.999390,93.000610 
z"/>
<path fill="#DFE2F9" opacity="1.000000" stroke="none" 
	d="
M90.784744,135.813080 
	C81.070129,139.183853 77.322083,136.554062 74.864426,123.990517 
	C73.747437,117.871574 73.129326,112.414673 71.624077,107.214561 
	C70.958817,104.916328 68.878075,102.289146 66.754547,101.332176 
	C63.874851,100.034447 60.337029,100.197098 56.750862,99.555725 
	C53.627396,98.900589 50.834564,98.423058 47.693436,97.769356 
	C44.560608,96.811142 40.892269,96.848091 39.215942,95.039116 
	C37.134834,92.793297 35.725769,88.998093 35.795498,85.912086 
	C35.890163,81.722679 39.378998,79.416199 43.503433,78.643372 
	C50.512318,77.330055 57.513039,75.955757 64.553291,74.833580 
	C68.945999,74.133408 71.271523,71.836739 71.976151,67.451233 
	C72.975609,61.230793 74.394638,55.076408 75.341583,48.849270 
	C76.231308,42.998421 78.800392,38.891270 85.013718,37.850918 
	C85.442230,37.939919 85.870750,38.028919 86.893127,38.311134 
	C89.663223,41.006088 92.055878,43.357975 93.931976,46.067532 
	C95.003242,47.614697 95.232758,49.744698 95.841278,51.612267 
	C96.203323,54.507572 96.565369,57.402878 97.043091,61.068069 
	C97.518585,63.957577 97.361328,66.373581 98.364822,68.124252 
	C99.719261,70.487228 101.604065,73.392319 103.907860,74.184555 
	C108.367561,75.718185 113.278961,75.938263 118.003159,76.702736 
	C118.926491,76.892372 119.849831,77.082016 121.333725,77.408890 
	C122.260300,77.595886 122.626305,77.645660 123.319481,77.793800 
	C124.099243,77.879555 124.551842,77.866943 125.004440,77.854332 
	C125.411522,77.990723 125.818596,78.127121 126.822853,78.467964 
	C129.870178,80.819931 132.320312,82.967453 134.770462,85.114975 
	C134.796860,86.457039 134.823257,87.799103 134.671494,89.751114 
	C134.360291,90.915329 134.227234,91.469597 134.094177,92.023865 
	C133.722107,92.461029 133.350037,92.898201 132.571320,93.761070 
	C129.731232,95.182648 127.378075,96.536942 124.848495,97.103279 
	C118.694618,98.481071 112.498352,99.845421 106.244186,100.546349 
	C100.764229,101.160515 98.715218,103.897011 97.852509,109.098610 
	C96.444458,117.588371 94.277283,125.952225 92.430397,134.369202 
	C92.430397,134.369202 92.491631,134.579132 92.286652,134.573059 
	C91.661835,135.001266 91.241997,135.435562 90.822159,135.869858 
	C90.822166,135.869858 90.812531,135.815140 90.784744,135.813080 
M78.860680,98.863045 
	C80.601700,106.457901 82.342728,114.052757 84.293159,122.561119 
	C85.176819,120.927338 85.793846,120.181557 86.002670,119.335075 
	C87.184425,114.544807 88.318436,109.741371 89.372658,104.921410 
	C90.632690,99.160477 92.796585,94.239578 99.365936,92.853157 
	C100.042503,92.710373 100.562309,91.824837 101.868126,91.204094 
	C102.576828,91.095863 103.285538,90.987633 104.843460,91.095230 
	C109.880142,90.235207 114.916824,89.375191 119.953506,88.515167 
	C119.876297,88.067978 119.799088,87.620789 119.721878,87.173599 
	C113.832771,85.938271 107.943657,84.702934 101.859741,83.307617 
	C101.859741,83.307617 101.608566,83.328964 101.063690,82.915733 
	C99.743271,82.551819 98.422844,82.187904 96.678795,81.478317 
	C96.171951,81.276665 95.665108,81.075005 94.870651,80.437759 
	C94.560471,80.290977 94.250290,80.144196 93.605797,79.570297 
	C93.070648,79.087105 92.535492,78.603905 91.782372,77.680962 
	C91.782372,77.680962 91.400620,77.372490 91.207481,76.698097 
	C90.639679,75.155449 90.071869,73.612793 89.606102,71.436768 
	C89.396973,70.617821 89.187851,69.798874 88.962395,68.344376 
	C88.723801,67.535912 88.485207,66.727455 88.318268,65.053879 
	C87.431740,60.122082 86.545219,55.190289 85.658691,50.258492 
	C85.190727,50.307396 84.722763,50.356300 84.254807,50.405205 
	C83.885330,52.950089 83.515854,55.494976 82.964981,58.754734 
	C82.828705,59.972214 82.692436,61.189693 82.135712,63.023624 
	C82.028023,63.994591 81.920334,64.965561 81.546043,66.511818 
	C81.386002,67.337143 81.225960,68.162476 80.788475,69.567024 
	C80.721016,70.409508 80.653557,71.251999 80.286041,72.678795 
	C80.183945,73.103165 80.081856,73.527534 79.592415,74.480080 
	C79.356773,75.311378 79.121124,76.142670 78.423248,77.416199 
	C76.979233,78.707329 75.535217,79.998466 73.405869,81.351143 
	C71.948982,81.953400 70.492096,82.555656 68.293045,83.170677 
	C67.566467,83.310173 66.839882,83.449669 65.561134,83.487053 
	C65.056816,83.696640 64.552498,83.906227 63.301167,84.142212 
	C62.572166,84.298706 61.843170,84.455200 60.561005,84.487892 
	C60.047272,84.687416 59.533543,84.886940 58.319511,85.109016 
	C57.186928,85.360291 56.054340,85.611565 54.202011,85.797592 
	C52.863758,86.112419 51.525501,86.427246 50.187244,86.742073 
	C50.161095,87.206955 50.134945,87.671837 50.108795,88.136719 
	C56.115166,90.609215 62.524872,91.520035 69.436661,92.324554 
	C69.436661,92.324554 69.899429,92.414917 69.899429,92.414917 
	C69.899429,92.414917 70.344772,92.260040 70.753479,92.765182 
	C71.166870,92.866180 71.580261,92.967178 72.440323,93.372795 
	C73.113014,93.602516 73.785713,93.832237 74.836205,94.578751 
	C75.210472,94.768921 75.584747,94.959084 76.214279,95.544388 
	C76.437592,95.782112 76.709938,95.928749 77.207138,96.506599 
	C77.695564,97.043411 78.183983,97.580231 78.860680,98.863045 
z"/>
<path fill="#A340CE" opacity="1.000000" stroke="none" 
	d="
M124.855194,39.258835 
	C129.210968,35.549339 133.613968,31.893175 137.896439,28.100903 
	C139.361435,26.803598 140.430740,25.068565 141.842468,23.700277 
	C146.217087,19.460224 148.564697,19.344090 154.644028,22.945801 
	C155.330307,29.380646 152.781189,34.485748 147.346298,37.601727 
	C142.373108,40.453014 139.395905,44.380440 137.948456,49.800167 
	C137.649658,50.918968 136.453033,51.797985 135.296860,52.512558 
	C134.848495,48.776649 132.853912,47.122585 129.617477,47.024319 
	C126.882614,46.941280 125.851822,45.693439 125.805519,43.061077 
	C125.783134,41.788483 125.189941,40.525932 124.855194,39.258835 
z"/>
<path fill="#DFE0F9" opacity="1.000000" stroke="none" 
	d="
M124.878479,39.250542 
	C125.189941,40.525932 125.783134,41.788483 125.805519,43.061077 
	C125.851822,45.693439 126.882614,46.941280 129.617477,47.024319 
	C132.853912,47.122585 134.848495,48.776649 134.958771,52.617992 
	C133.857971,54.003513 132.721878,55.008636 130.891815,56.098099 
	C126.250969,55.618515 125.436432,57.675838 126.153778,61.015076 
	C125.497932,62.063576 124.842094,63.112068 123.641281,64.484802 
	C120.112488,65.358551 117.110085,64.562561 117.139900,61.393414 
	C117.192108,55.844032 113.824020,55.890617 110.065666,55.874630 
	C106.372124,51.008858 107.377098,48.333820 113.039276,46.850109 
	C114.438843,46.483364 115.650169,44.758148 116.577026,43.403561 
	C117.547508,41.985210 118.071411,40.261292 118.993912,38.376755 
	C119.197319,38.082577 119.644089,38.047256 120.071243,37.965317 
	C120.498398,37.883373 120.944725,37.757889 120.944725,37.757889 
	C121.381706,37.859097 121.818680,37.960308 122.741959,38.356213 
	C123.773170,38.844223 124.318100,39.037533 124.863022,39.230843 
	C124.863022,39.230846 124.901772,39.242245 124.878479,39.250542 
z"/>
<path fill="#A347CD" opacity="1.000000" stroke="none" 
	d="
M109.903854,56.189468 
	C113.824020,55.890617 117.192108,55.844032 117.139900,61.393414 
	C117.110085,64.562561 120.112488,65.358551 123.496902,64.758118 
	C121.198166,65.977959 118.526131,67.312035 115.787842,68.492386 
	C114.449585,69.069244 112.987984,69.359955 110.994873,69.955757 
	C113.717850,72.448982 115.726059,74.287750 117.868713,76.414627 
	C113.278961,75.938263 108.367561,75.718185 103.907860,74.184555 
	C101.604065,73.392319 99.719261,70.487228 98.364822,68.124252 
	C97.361328,66.373581 97.518585,63.957577 97.190681,61.445663 
	C98.692574,61.286495 100.468521,62.157959 101.572998,61.628555 
	C104.453041,60.248066 107.038872,58.253788 109.903854,56.189468 
z"/>
<path fill="#B442C3" opacity="1.000000" stroke="none" 
	d="
M134.991791,84.946304 
	C132.320312,82.967453 129.870178,80.819931 127.146240,78.472588 
	C130.357239,75.909492 133.842041,73.546227 137.660065,71.093933 
	C137.329636,75.055923 136.665985,79.106934 136.003296,83.577133 
	C135.740524,84.256752 135.476822,84.517189 134.991791,84.946304 
z"/>
<path fill="#A347CD" opacity="1.000000" stroke="none" 
	d="
M126.434662,60.877388 
	C125.436432,57.675838 126.250969,55.618515 130.599609,56.252609 
	C129.572739,57.795090 128.144150,59.267395 126.434662,60.877388 
z"/>
<path fill="#B442C3" opacity="1.000000" stroke="none" 
	d="
M124.918015,77.633347 
	C124.551842,77.866943 124.099243,77.879555 123.301857,77.605354 
	C122.957069,77.318542 122.899529,76.944290 122.899529,76.944290 
	C123.543549,77.100311 124.187569,77.256340 124.918015,77.633347 
z"/>
<path fill="#A347CD" opacity="1.000000" stroke="none" 
	d="
M122.543648,76.999992 
	C122.899529,76.944290 122.957069,77.318542 122.974693,77.506989 
	C122.626305,77.645660 122.260300,77.595886 121.684875,77.354874 
	C121.712891,77.127663 121.950325,77.091682 122.543648,76.999992 
z"/>
<path fill="#914ED3" opacity="1.000000" stroke="none" 
	d="
M85.012367,37.619400 
	C78.800392,38.891270 76.231308,42.998421 75.341583,48.849270 
	C74.394638,55.076408 72.975609,61.230793 71.976151,67.451233 
	C71.271523,71.836739 68.945999,74.133408 64.553291,74.833580 
	C57.513039,75.955757 50.512318,77.330055 43.503433,78.643372 
	C39.378998,79.416199 35.890163,81.722679 35.795498,85.912086 
	C35.725769,88.998093 37.134834,92.793297 39.215942,95.039116 
	C40.892269,96.848091 44.560608,96.811142 47.677395,98.040977 
	C47.998699,98.669861 47.987755,98.850952 47.540291,99.022644 
	C43.740799,98.334900 40.377834,97.656555 37.014874,96.978210 
	C36.065186,95.530922 35.115498,94.083641 34.082558,92.320610 
	C34.000141,90.675575 33.981251,89.345947 34.005131,88.017075 
	C34.129955,81.070587 36.734993,77.336174 43.784164,76.477058 
	C51.552700,75.530281 58.435307,72.105110 63.443031,67.117958 
	C68.004112,62.575615 70.057007,55.451992 72.979324,49.353001 
	C74.469650,46.242611 75.441475,42.883774 77.162590,39.171043 
	C80.114433,38.111691 82.551346,37.518539 84.988266,36.925388 
	C84.988266,36.925388 85.011017,37.387878 85.012367,37.619400 
z"/>
<path fill="#914ED3" opacity="1.000000" stroke="none" 
	d="
M95.871597,51.129875 
	C95.232758,49.744698 95.003242,47.614697 93.931976,46.067532 
	C92.055878,43.357975 89.663223,41.006088 87.221588,38.288410 
	C87.176788,37.817558 87.397385,37.562649 87.808990,37.141052 
	C88.750542,36.985977 89.501091,36.997585 90.626999,37.011456 
	C92.647301,39.108189 94.292236,41.202663 95.973038,43.649940 
	C95.973244,46.217659 95.937584,48.432568 95.871597,51.129875 
z"/>
<path fill="#8340DD" opacity="1.000000" stroke="none" 
	d="
M84.875069,36.591415 
	C82.551346,37.518539 80.114433,38.111691 77.350739,38.873077 
	C77.508858,37.555836 78.042450,34.785862 78.470383,34.802090 
	C80.582901,34.882191 82.667458,35.699917 84.875069,36.591415 
z"/>
<path fill="#B442C3" opacity="1.000000" stroke="none" 
	d="
M92.802383,134.393631 
	C94.277283,125.952225 96.444458,117.588371 97.852509,109.098610 
	C98.715218,103.897011 100.764229,101.160515 106.244186,100.546349 
	C112.498352,99.845421 118.694618,98.481071 124.848495,97.103279 
	C127.378075,96.536942 129.731232,95.182648 132.485229,94.039902 
	C134.010468,97.987732 130.302841,97.803986 128.415054,98.179520 
	C124.393074,98.979591 122.043030,101.481537 118.961853,103.869713 
	C111.563957,109.603683 105.932777,116.825768 99.506989,123.352119 
	C97.995453,124.887314 97.289238,127.210686 96.191986,129.159897 
	C95.200706,130.920837 94.181351,132.665955 92.802383,134.393631 
z"/>
<path fill="#BD39BA" opacity="1.000000" stroke="none" 
	d="
M139.002014,97.250893 
	C140.390106,97.000877 141.777771,97.000694 143.762177,97.153748 
	C144.591446,97.521469 144.805405,97.753090 145.109619,98.278091 
	C145.812073,99.035973 146.405731,99.517624 146.999390,99.999268 
	C144.238571,103.357193 141.665604,106.893387 138.680649,110.038597 
	C130.701462,118.446136 122.685616,126.829666 114.387978,134.918732 
	C111.239182,137.988388 107.279793,140.226578 103.345001,142.588547 
	C103.000084,141.888901 103.000038,141.444443 103.279488,140.814804 
	C106.424286,137.222870 109.056847,133.582199 112.200020,130.454712 
	C120.510063,122.186157 129.039169,114.137703 137.485809,106.006554 
	C139.891388,103.690834 140.826172,101.110222 139.001190,98.000374 
	C139.001190,98.000374 139.001602,97.500717 139.002014,97.250893 
z"/>
<path fill="#BC39BC" opacity="1.000000" stroke="none" 
	d="
M138.800812,98.267593 
	C140.826172,101.110222 139.891388,103.690834 137.485809,106.006554 
	C129.039169,114.137703 120.510063,122.186157 112.200020,130.454712 
	C109.056847,133.582199 106.424286,137.222870 102.922821,140.891098 
	C100.856964,141.434250 99.427261,141.715912 97.997559,141.997559 
	C100.682899,138.147293 102.988190,133.947922 106.135246,130.521759 
	C112.102104,124.025688 118.516258,117.937019 124.812279,111.747963 
	C129.351547,107.285828 134.000427,102.935188 138.800812,98.267593 
z"/>
<path fill="#BC3AB9" opacity="1.000000" stroke="none" 
	d="
M97.638275,142.007660 
	C99.427261,141.715912 100.856964,141.434250 102.643333,141.076294 
	C103.000038,141.444443 103.000084,141.888901 103.000214,142.666672 
	C100.886169,144.608978 98.772049,146.217957 96.331093,147.913208 
	C94.598854,145.615524 90.712326,142.702835 97.638275,142.007660 
z"/>
<path fill="#B442C3" opacity="1.000000" stroke="none" 
	d="
M134.318542,91.939087 
	C134.227234,91.469597 134.360291,90.915329 134.695404,90.153442 
	C134.779282,90.581993 134.661087,91.218155 134.318542,91.939087 
z"/>
<path fill="#B442C3" opacity="1.000000" stroke="none" 
	d="
M91.118591,135.801498 
	C91.241997,135.435562 91.661835,135.001266 92.391373,134.541595 
	C92.272392,134.921860 91.843704,135.327499 91.118591,135.801498 
z"/>
<path fill="#B93ABF" opacity="1.000000" stroke="none" 
	d="
M145.000809,98.001854 
	C144.805405,97.753090 144.591446,97.521469 144.178558,97.153702 
	C145.082840,95.679665 146.167526,94.358910 147.625793,93.019386 
	C147.999710,93.750595 148.000015,94.500587 148.000778,95.625595 
	C147.806519,96.249382 147.593155,96.480980 146.930420,96.972206 
	C146.000061,97.499962 145.500443,97.750908 145.000809,98.001854 
z"/>
<path fill="#BC39BC" opacity="1.000000" stroke="none" 
	d="
M145.109619,98.278091 
	C145.500443,97.750908 146.000061,97.499962 146.750458,97.125427 
	C147.000809,97.751190 147.000397,98.500542 146.999695,99.624588 
	C146.405731,99.517624 145.812073,99.035973 145.109619,98.278091 
z"/>
<path fill="#9841D2" opacity="1.000000" stroke="none" 
	d="
M124.817741,38.980324 
	C124.318100,39.037533 123.773170,38.844223 123.076172,38.399490 
	C123.540222,38.341984 124.156342,38.535892 124.817741,38.980324 
z"/>
<path fill="#9841D2" opacity="1.000000" stroke="none" 
	d="
M120.832611,37.708057 
	C120.944725,37.757889 120.498398,37.883373 120.268044,37.858166 
	C120.240036,37.666157 120.467644,37.607910 120.832611,37.708057 
z"/>
<path fill="#A93FCA" opacity="1.000000" stroke="none" 
	d="
M26.099110,165.646851 
	C24.441730,164.516357 22.880709,163.043945 21.493965,161.213806 
	C26.065418,155.877899 30.467707,150.904175 34.841518,145.905533 
	C35.020882,145.700546 34.978497,145.259064 34.961910,144.931686 
	C34.798866,141.714569 36.529430,140.168640 39.462055,139.304413 
	C40.760002,138.921906 41.829685,137.764847 43.395580,136.889389 
	C53.289989,138.301666 57.165623,136.436966 62.350735,127.940941 
	C63.083824,127.575256 63.550636,127.285019 64.017448,126.994774 
	C64.145950,128.369781 64.916283,130.462891 64.304520,131.009674 
	C57.547573,137.048950 53.568275,146.185944 44.030014,149.196045 
	C42.657337,149.629242 41.573910,151.345551 40.615372,152.657166 
	C37.487724,156.936859 34.736118,161.523941 28.796228,162.559189 
	C27.800055,162.732819 27.056011,164.353104 26.099110,165.646851 
z"/>
<path fill="#A347CC" opacity="1.000000" stroke="none" 
	d="
M64.015388,126.596321 
	C63.550636,127.285019 63.083824,127.575256 62.340134,127.494614 
	C60.954994,122.784019 59.846725,118.444298 58.917633,113.834145 
	C57.577667,111.005875 56.058525,108.448051 54.136738,105.212273 
	C54.690899,104.181213 55.886200,101.957275 57.081497,99.733337 
	C60.337029,100.197098 63.874851,100.034447 66.754547,101.332176 
	C68.878075,102.289146 70.958817,104.916328 71.624077,107.214561 
	C73.129326,112.414673 73.747437,117.871574 74.725838,123.615456 
	C74.725327,124.006866 74.357513,124.028572 73.988571,123.727219 
	C72.337395,119.516556 71.055153,115.607246 69.767693,111.682007 
	C64.311188,112.037529 64.395126,112.059029 64.693420,117.211151 
	C64.804207,119.124596 64.268585,121.075455 64.027748,123.009254 
	C64.022942,124.072128 64.018135,125.134995 64.015388,126.596321 
z"/>
<path fill="#A93FCA" opacity="1.000000" stroke="none" 
	d="
M64.340851,122.889946 
	C64.268585,121.075455 64.804207,119.124596 64.693420,117.211151 
	C64.395126,112.059029 64.311188,112.037529 69.767693,111.682007 
	C71.055153,115.607246 72.337395,119.516556 73.804535,123.735519 
	C73.991371,125.746086 73.993301,127.447006 73.992447,129.573944 
	C72.617867,130.184570 71.246071,130.369156 69.874275,130.553741 
	C66.590790,128.678101 75.260887,118.870407 64.340851,122.889946 
z"/>
<path fill="#C635B1" opacity="1.000000" stroke="none" 
	d="
M158.347290,117.921036 
	C161.762115,114.023315 165.524246,110.046936 169.643494,106.035530 
	C169.051819,112.640083 164.338913,115.685883 158.347290,117.921036 
z"/>
<path fill="#C635B1" opacity="1.000000" stroke="none" 
	d="
M124.401245,151.996826 
	C126.780106,149.058350 129.559906,146.116684 132.669846,143.087509 
	C131.658813,150.463791 130.813843,151.390778 124.401245,151.996826 
z"/>
<path fill="#A23FCE" opacity="1.000000" stroke="none" 
	d="
M43.002991,136.959412 
	C41.829685,137.764847 40.760002,138.921906 39.462055,139.304413 
	C36.529430,140.168640 34.798866,141.714569 34.961910,144.931686 
	C34.978497,145.259064 35.020882,145.700546 34.841518,145.905533 
	C30.467707,150.904175 26.065418,155.877899 21.315929,160.940613 
	C19.533421,160.047318 18.103224,159.069519 16.338226,158.046341 
	C12.681016,152.573578 15.447920,148.722931 19.335711,145.172104 
	C20.431072,144.171677 21.456310,143.048630 22.688292,142.251694 
	C27.605749,139.070740 31.598381,135.159073 34.038895,129.211411 
	C35.043835,128.998077 35.461464,129.000381 36.091763,129.267670 
	C38.537289,132.008240 40.770142,134.483826 43.002991,136.959412 
z"/>
<path fill="#9843D2" opacity="1.000000" stroke="none" 
	d="
M35.879089,129.002701 
	C35.461464,129.000381 35.043835,128.998077 34.312977,128.992096 
	C33.453209,127.165405 32.906670,125.342407 32.419842,123.718575 
	C23.063185,125.713104 19.308598,133.398773 14.387797,139.479752 
	C11.541981,142.996536 8.857051,144.196823 4.386089,143.004791 
	C3.998205,142.549362 3.999007,142.106674 4.186911,141.050827 
	C10.342657,134.355103 16.378590,128.336731 22.261307,122.172157 
	C28.326633,115.816216 28.261372,115.753937 35.543663,119.918854 
	C35.630974,123.211815 35.755032,126.107254 35.879089,129.002701 
z"/>
<path fill="#9240D5" opacity="1.000000" stroke="none" 
	d="
M35.580406,119.521339 
	C28.261372,115.753937 28.326633,115.816216 22.261307,122.172157 
	C16.378590,128.336731 10.342657,134.355103 4.186777,140.718719 
	C2.223395,134.725052 5.952953,128.202545 11.617636,125.527985 
	C14.496934,124.168526 16.729624,121.057098 18.759325,118.364326 
	C22.414413,113.515190 25.148581,107.739281 32.503830,107.324829 
	C32.022648,109.013039 31.272297,110.400604 30.475721,111.873657 
	C33.608173,112.616867 36.290367,113.253258 38.865185,114.125214 
	C38.489635,114.571503 38.221462,114.782219 37.596550,115.056084 
	C36.625305,116.508072 36.010799,117.896904 35.492561,119.305374 
	C35.588829,119.325012 35.580406,119.521339 35.580406,119.521339 
z"/>
<path fill="#9843D2" opacity="1.000000" stroke="none" 
	d="
M38.972565,113.889641 
	C36.290367,113.253258 33.608173,112.616867 30.475721,111.873657 
	C31.272297,110.400604 32.022648,109.013039 32.889065,107.315262 
	C33.828236,106.792961 34.651340,106.580872 36.084019,106.092865 
	C38.454575,104.966385 40.295654,104.246925 41.956303,103.232178 
	C44.040451,101.958656 45.976723,100.443123 47.976814,99.032036 
	C47.987755,98.850952 47.998699,98.669861 48.025688,98.217148 
	C50.834564,98.423058 53.627396,98.900589 56.750862,99.555733 
	C55.886200,101.957275 54.690899,104.181213 54.136738,105.212273 
	C56.058525,108.448051 57.577667,111.005875 58.617805,113.677124 
	C51.723125,108.615494 45.338436,109.433075 38.972565,113.889641 
z"/>
<path fill="#923FD5" opacity="1.000000" stroke="none" 
	d="
M47.540291,99.022644 
	C45.976723,100.443123 44.040451,101.958656 41.956303,103.232178 
	C40.295654,104.246925 38.454575,104.966385 36.348930,105.910400 
	C36.287029,103.227234 36.569786,100.450607 36.933708,97.326096 
	C40.377834,97.656555 43.740799,98.334900 47.540291,99.022644 
z"/>
<path fill="#9C41D0" opacity="1.000000" stroke="none" 
	d="
M88.246613,65.918991 
	C88.485207,66.727455 88.723801,67.535912 88.822914,68.882477 
	C88.956970,70.303764 89.230515,71.186951 89.504059,72.070145 
	C90.071869,73.612793 90.639679,75.155449 91.283249,77.189056 
	C91.438812,78.021072 91.652580,78.167969 92.000343,78.120712 
	C92.535492,78.603905 93.070648,79.087105 93.618866,79.914230 
	C93.460876,80.464912 93.311134,80.686089 92.795959,80.927101 
	C90.823433,80.932510 89.237640,80.932510 88.817665,80.932510 
	C84.497902,86.449066 80.764610,91.216682 77.031311,95.984299 
	C76.709938,95.928749 76.437592,95.782112 75.863068,95.132881 
	C75.160706,94.501564 74.809555,94.281761 74.458405,94.061958 
	C73.785713,93.832237 73.113014,93.602516 71.967880,93.039673 
	C71.111885,92.557724 70.728325,92.408882 70.344772,92.260040 
	C70.344772,92.260040 69.899429,92.414917 69.899429,92.414917 
	C69.899429,92.414917 69.436661,92.324554 68.961273,91.960403 
	C65.347237,90.740776 62.133732,90.084839 59.100933,88.947197 
	C57.541626,88.362274 56.304482,86.918503 54.921757,85.862839 
	C56.054340,85.611565 57.186928,85.360291 58.842026,85.219345 
	C59.947754,85.090355 60.530964,84.851028 61.114170,84.611694 
	C61.843170,84.455200 62.572166,84.298706 63.846611,84.249382 
	C64.965805,84.100754 65.539551,83.844955 66.113304,83.589165 
	C66.839882,83.449669 67.566467,83.310173 68.941605,83.317497 
	C71.090515,82.739418 72.590858,82.014511 74.091209,81.289604 
	C75.535217,79.998466 76.979233,78.707329 78.928650,77.103928 
	C79.615959,75.845070 79.797859,74.898491 79.979759,73.951904 
	C80.081856,73.527534 80.183945,73.103165 80.638107,72.231430 
	C81.015427,70.851982 81.040680,69.919891 81.065926,68.987801 
	C81.225960,68.162476 81.386002,67.337143 81.894829,65.922073 
	C82.347794,64.357285 82.451973,63.382229 82.556160,62.407173 
	C82.692436,61.189693 82.828705,59.972214 83.408615,58.445839 
	C85.317039,60.730957 86.781822,63.324974 88.246613,65.918991 
z"/>
<path fill="#A53DCD" opacity="1.000000" stroke="none" 
	d="
M77.119225,96.245453 
	C80.764610,91.216682 84.497902,86.449066 88.817665,80.932510 
	C89.237640,80.932510 90.823433,80.932510 93.123383,80.932693 
	C94.277779,80.913033 94.718025,80.893188 95.158264,80.873344 
	C95.665108,81.075005 96.171951,81.276665 97.051682,81.985168 
	C98.819229,82.771004 100.213898,83.049980 101.608566,83.328964 
	C101.608566,83.328964 101.859741,83.307617 102.016541,83.785019 
	C102.780304,86.468079 103.387276,88.673737 103.994240,90.879395 
	C103.285538,90.987633 102.576828,91.095863 101.227760,91.024872 
	C94.521866,90.142105 89.405128,94.275299 88.109390,100.779053 
	C87.711876,102.774361 86.971291,104.701324 86.394203,106.638123 
	C83.337090,103.264572 81.004745,100.690811 78.672401,98.117050 
	C78.183983,97.580231 77.695564,97.043411 77.119225,96.245453 
z"/>
<path fill="#A946C6" opacity="1.000000" stroke="none" 
	d="
M78.766541,98.490051 
	C81.004745,100.690811 83.337090,103.264572 86.394203,106.638123 
	C86.971291,104.701324 87.711876,102.774361 88.109390,100.779053 
	C89.405128,94.275299 94.521866,90.142105 100.871124,91.064796 
	C100.562309,91.824837 100.042503,92.710373 99.365936,92.853157 
	C92.796585,94.239578 90.632690,99.160477 89.372658,104.921410 
	C88.318436,109.741371 87.184425,114.544807 86.002670,119.335075 
	C85.793846,120.181557 85.176819,120.927338 84.293159,122.561119 
	C82.342728,114.052757 80.601700,106.457901 78.766541,98.490051 
z"/>
<path fill="#A946C6" opacity="1.000000" stroke="none" 
	d="
M104.418854,90.987312 
	C103.387276,88.673737 102.780304,86.468079 102.113945,83.865013 
	C107.943657,84.702934 113.832771,85.938271 119.721878,87.173599 
	C119.799088,87.620789 119.876297,88.067978 119.953506,88.515167 
	C114.916824,89.375191 109.880142,90.235207 104.418854,90.987312 
z"/>
<path fill="#9F61CF" opacity="1.000000" stroke="none" 
	d="
M54.561882,85.830215 
	C56.304482,86.918503 57.541626,88.362274 59.100933,88.947197 
	C62.133732,90.084839 65.347237,90.740776 68.751862,91.852371 
	C62.524872,91.520035 56.115166,90.609215 50.108795,88.136719 
	C50.134945,87.671837 50.161095,87.206955 50.187244,86.742073 
	C51.525501,86.427246 52.863758,86.112419 54.561882,85.830215 
z"/>
<path fill="#A268CF" opacity="1.000000" stroke="none" 
	d="
M88.282440,65.486435 
	C86.781822,63.324974 85.317039,60.730957 83.499313,58.088402 
	C83.515854,55.494976 83.885330,52.950089 84.254807,50.405205 
	C84.722763,50.356300 85.190727,50.307396 85.658691,50.258492 
	C86.545219,55.190289 87.431740,60.122082 88.282440,65.486435 
z"/>
<path fill="#A268CF" opacity="1.000000" stroke="none" 
	d="
M73.748535,81.320374 
	C72.590858,82.014511 71.090515,82.739418 69.312683,83.311111 
	C70.492096,82.555656 71.948982,81.953400 73.748535,81.320374 
z"/>
<path fill="#B06DD0" opacity="1.000000" stroke="none" 
	d="
M101.336128,83.122345 
	C100.213898,83.049980 98.819229,82.771004 97.263489,82.158005 
	C98.422844,82.187904 99.743271,82.551819 101.336128,83.122345 
z"/>
<path fill="#A268CF" opacity="1.000000" stroke="none" 
	d="
M79.786087,74.215988 
	C79.797859,74.898491 79.615959,75.845070 79.159760,76.882812 
	C79.121124,76.142670 79.356773,75.311378 79.786087,74.215988 
z"/>
<path fill="#A268CF" opacity="1.000000" stroke="none" 
	d="
M89.555084,71.753456 
	C89.230515,71.186951 88.956970,70.303764 88.831085,69.200249 
	C89.187851,69.798874 89.396973,70.617821 89.555084,71.753456 
z"/>
<path fill="#A268CF" opacity="1.000000" stroke="none" 
	d="
M80.927200,69.277412 
	C81.040680,69.919891 81.015427,70.851982 80.788132,71.939278 
	C80.653557,71.251999 80.721016,70.409508 80.927200,69.277412 
z"/>
<path fill="#A268CF" opacity="1.000000" stroke="none" 
	d="
M60.837585,84.549789 
	C60.530964,84.851028 59.947754,85.090355 59.192177,85.208069 
	C59.533543,84.886940 60.047272,84.687416 60.837585,84.549789 
z"/>
<path fill="#A268CF" opacity="1.000000" stroke="none" 
	d="
M65.837219,83.538109 
	C65.539551,83.844955 64.965805,84.100754 64.220123,84.236191 
	C64.552498,83.906227 65.056816,83.696640 65.837219,83.538109 
z"/>
<path fill="#A268CF" opacity="1.000000" stroke="none" 
	d="
M82.345932,62.715401 
	C82.451973,63.382229 82.347794,64.357285 82.028130,65.634430 
	C81.920334,64.965561 82.028023,63.994591 82.345932,62.715401 
z"/>
<path fill="#B06DD0" opacity="1.000000" stroke="none" 
	d="
M95.014458,80.655548 
	C94.718025,80.893188 94.277779,80.913033 93.510124,80.927292 
	C93.311134,80.686089 93.460876,80.464912 93.786018,80.127792 
	C94.250290,80.144196 94.560471,80.290977 95.014458,80.655548 
z"/>
<path fill="#A946C6" opacity="1.000000" stroke="none" 
	d="
M74.647308,94.320358 
	C74.809555,94.281761 75.160706,94.501564 75.735435,94.935318 
	C75.584747,94.959084 75.210472,94.768921 74.647308,94.320358 
z"/>
<path fill="#9F61CF" opacity="1.000000" stroke="none" 
	d="
M70.549126,92.512611 
	C70.728325,92.408882 71.111885,92.557724 71.744537,92.887360 
	C71.580261,92.967178 71.166870,92.866180 70.549126,92.512611 
z"/>
<path fill="#A268CF" opacity="1.000000" stroke="none" 
	d="
M91.891357,77.900833 
	C91.652580,78.167969 91.438812,78.021072 91.379822,77.526260 
	C91.400620,77.372490 91.782372,77.680962 91.891357,77.900833 
z"/>
<path fill="#DFE1F9" opacity="1.000000" stroke="none" 
	d="
M38.865185,114.125214 
	C45.338436,109.433075 51.723125,108.615494 58.438629,113.947556 
	C59.846725,118.444298 60.954994,122.784019 62.073860,127.570061 
	C57.165623,136.436966 53.289989,138.301666 43.395584,136.889389 
	C40.770142,134.483826 38.537289,132.008240 36.091763,129.267670 
	C35.755032,126.107254 35.630974,123.211815 35.543663,119.918854 
	C35.580406,119.521339 35.588829,119.325012 35.732681,119.106750 
	C36.568787,117.589966 37.261040,116.291443 37.953293,114.992928 
	C38.221462,114.782219 38.489635,114.571503 38.865185,114.125214 
M51.415215,120.453392 
	C51.415215,120.453392 51.264847,120.440651 50.816559,119.961075 
	C45.919807,118.852249 44.513538,120.056137 45.020321,125.689735 
	C46.008583,126.428894 46.996845,127.168060 48.669300,128.111053 
	C49.477348,127.745949 50.285400,127.380844 51.404213,126.623459 
	C51.774773,126.290413 52.145332,125.957375 52.937897,125.200851 
	C52.430447,123.668671 51.922997,122.136482 51.415215,120.453392 
z"/>
<path fill="#9843D2" opacity="1.000000" stroke="none" 
	d="
M37.596550,115.056084 
	C37.261040,116.291443 36.568787,117.589966 35.636414,119.087112 
	C36.010799,117.896904 36.625305,116.508072 37.596550,115.056084 
z"/>
<path fill="#A040CB" opacity="1.000000" stroke="none" 
	d="
M47.985104,127.907219 
	C46.996845,127.168060 46.008583,126.428894 45.162724,125.085449 
	C47.291702,123.134331 49.278275,121.787491 51.264847,120.440651 
	C51.264847,120.440651 51.415215,120.453392 51.462132,120.955811 
	C51.844662,122.846931 52.180275,124.235626 52.515884,125.624329 
	C52.145332,125.957375 51.774773,126.290413 50.918655,126.837784 
	C49.617104,127.337135 48.801105,127.622177 47.985104,127.907219 
z"/>
<path fill="#A66CCB" opacity="1.000000" stroke="none" 
	d="
M51.040703,120.200867 
	C49.278275,121.787491 47.291702,123.134331 45.086403,124.767487 
	C44.513538,120.056137 45.919807,118.852249 51.040703,120.200867 
z"/>
<path fill="#A66CCB" opacity="1.000000" stroke="none" 
	d="
M52.726891,125.412590 
	C52.180275,124.235626 51.844662,122.846931 51.462296,121.031265 
	C51.922997,122.136482 52.430447,123.668671 52.726891,125.412590 
z"/>
<path fill="#A66CCB" opacity="1.000000" stroke="none" 
	d="
M48.327202,128.009125 
	C48.801105,127.622177 49.617104,127.337135 50.763275,127.033920 
	C50.285400,127.380844 49.477348,127.745949 48.327202,128.009125 
z"/>
</svg>